<svg width="24" height="24" viewBox="0 0 24 24" fill="none" xmlns="http://www.w3.org/2000/svg">
<circle cx="12" cy="12" r="12" fill="#101750"/>
<path d="M15.0558 5.88878C15.8655 5.8912 16.6413 6.21392 17.2138 6.78647C17.7864 7.35902 18.1092 8.13486 18.1116 8.94456V15.0555C18.1092 15.8652 17.7864 16.641 17.2138 17.2136C16.6413 17.7861 15.8655 18.1088 15.0558 18.1113H8.94488C8.13519 18.1088 7.35934 17.7861 6.78679 17.2136C6.21425 16.641 5.89153 15.8652 5.88911 15.0555V8.94456C5.89153 8.13486 6.21425 7.35902 6.78679 6.78647C7.35934 6.21392 8.13519 5.8912 8.94488 5.88878H15.0558ZM15.0558 4.66666H8.94488C6.59199 4.66666 4.66699 6.59167 4.66699 8.94456V15.0555C4.66699 17.4084 6.59199 19.3333 8.94488 19.3333H15.0558C17.4087 19.3333 19.3337 17.4084 19.3337 15.0555V8.94456C19.3337 6.59167 17.4087 4.66666 15.0558 4.66666Z" fill="white"/>
<path d="M15.9721 8.9448C15.7908 8.9448 15.6136 8.89104 15.4628 8.79031C15.3122 8.68959 15.1947 8.54643 15.1253 8.37893C15.0559 8.21142 15.0377 8.02712 15.0731 7.8493C15.1085 7.67148 15.1958 7.50814 15.324 7.37995C15.4522 7.25175 15.6155 7.16444 15.7933 7.12907C15.9712 7.09371 16.1555 7.11186 16.3229 7.18124C16.4904 7.25062 16.6336 7.36811 16.7344 7.51885C16.8351 7.6696 16.8888 7.84683 16.8888 8.02813C16.8891 8.14858 16.8656 8.2679 16.8195 8.37923C16.7736 8.49056 16.7061 8.59172 16.6209 8.67689C16.5358 8.76206 16.4346 8.82958 16.3232 8.87555C16.2119 8.92153 16.0926 8.94506 15.9721 8.9448ZM12 9.55569C12.4835 9.55569 12.9562 9.69907 13.3582 9.96768C13.7601 10.2363 14.0735 10.6181 14.2585 11.0648C14.4436 11.5114 14.4919 12.003 14.3976 12.4772C14.3033 12.9514 14.0705 13.3869 13.7286 13.7289C13.3867 14.0707 12.9512 14.3036 12.4769 14.3979C12.0027 14.4922 11.5112 14.4438 11.0645 14.2588C10.6179 14.0737 10.2361 13.7604 9.96746 13.3584C9.69885 12.9564 9.55548 12.4837 9.55548 12.0003C9.55617 11.3521 9.81395 10.7307 10.2722 10.2725C10.7305 9.81416 11.3519 9.55639 12 9.55569ZM12 8.33357C11.2748 8.33357 10.5659 8.54862 9.96294 8.95152C9.35996 9.35443 8.89 9.92708 8.61247 10.5971C8.33495 11.2671 8.26234 12.0043 8.40382 12.7156C8.5453 13.4269 8.89452 14.0802 9.40731 14.593C9.9201 15.1057 10.5734 15.455 11.2847 15.5965C11.996 15.7379 12.7332 15.6654 13.4032 15.3878C14.0732 15.1103 14.6459 14.6404 15.0488 14.0374C15.4517 13.4344 15.6667 12.7255 15.6667 12.0003C15.6667 11.0278 15.2804 10.0952 14.5928 9.40752C13.9051 8.71989 12.9725 8.33357 12 8.33357Z" fill="white"/>
</svg>
